<?xml version="1.0" encoding="UTF-8"?>
<svg id="Layer_1" data-name="Layer 1" xmlns="http://www.w3.org/2000/svg" viewBox="0 0 67.45 50.69">
  <defs>
    <style>
      .cls-1 {
        fill: #fff;
      }
    </style>
  </defs>
  <path class="cls-1" d="M28.79,1.16l-14.92,11.67-10.8.17c-1.71.03-3.07,1.42-3.07,3.12v18.86c0,1.76,1.45,3.17,3.21,3.12l10.66-.28,14.92,11.67c2.05,1.61,5.05.14,5.05-2.46V3.62c0-2.6-3-4.07-5.05-2.46h0ZM45.06,11.34l-5.01,6c2.38,1.99,3.75,4.91,3.75,8s-1.36,6-3.73,7.99l5.02,5.99c4.15-3.48,6.52-8.57,6.52-13.98s-2.39-10.52-6.55-14h0ZM55,0l-4.78,6.18c5.98,4.63,9.42,11.61,9.42,19.17s-3.43,14.53-9.41,19.16l4.78,6.18c7.91-6.12,12.44-15.35,12.44-25.34,0-9.99-4.54-19.23-12.45-25.35h0Z"/>
</svg>