<svg xmlns="http://www.w3.org/2000/svg" viewBox="0 0 16 16" id="Book-Open--Streamline-Font-Awesome" height="16" width="16">
  <desc>
    Book Open Streamline Icon: https://streamlinehq.com
  </desc>
<!--! Font Awesome Free 6.5.2 by @fontawesome - https://fontawesome.com License - https://fontawesome.com/license/free (Icons: CC BY 4.0, Fonts: SIL OFL 1.1, Code: MIT License) Copyright 2024 Fonticons, Inc.-->
  <path d="M6.954666666666666 13.968961111111112c0.294 0.10344444444444445 0.6097777777777778 -0.1116111111111111 0.6097777777777778 -0.4219444444444444v-10.273666666666665c0 -0.11433333333333331 -0.043555555555555556 -0.22866666666666663 -0.13611111111111113 -0.2994444444444444 -0.5335555555555554 -0.42466666666666664 -1.7585555555555554 -0.969111111111111 -3.348333333333333 -0.969111111111111 -1.3747222222222222 0 -2.659611111111111 0.3620555555555556 -3.427277777777778 0.6560555555555555 -0.3076111111111111 0.11977777777777777 -0.4927222222222222 0.42466666666666664 -0.4927222222222222 0.7540555555555556v10.080388888888889c0 0.3239444444444444 0.34844444444444445 0.5498888888888889 0.6560555555555555 0.4491666666666667 0.8574999999999999 -0.2858333333333333 2.215888888888889 -0.6152222222222222 3.2639444444444443 -0.6152222222222222 0.9228333333333333 0 2.1505555555555556 0.3811111111111111 2.8746666666666667 0.6397222222222222Zm2.0906666666666665 0c0.7241111111111111 -0.2586111111111111 1.9518333333333333 -0.6397222222222222 2.8746666666666667 -0.6397222222222222 1.0480555555555555 0 2.4064444444444444 0.3293888888888889 3.2639444444444443 0.6152222222222222 0.3076111111111111 0.10344444444444445 0.6560555555555555 -0.1252222222222222 0.6560555555555555 -0.4491666666666667v-10.080388888888889c0 -0.3293888888888889 -0.1851111111111111 -0.6342777777777777 -0.4927222222222222 -0.7513333333333333 -0.7676666666666666 -0.2967222222222222 -2.0525555555555552 -0.6587777777777778 -3.427277777777778 -0.6587777777777778 -1.5897777777777777 0 -2.8147777777777776 0.5444444444444445 -3.348333333333333 0.969111111111111 -0.08983333333333333 0.07077777777777777 -0.13611111111111113 0.1851111111111111 -0.13611111111111113 0.2994444444444444v10.273666666666665c0 0.31033333333333335 0.31849999999999995 0.5253888888888889 0.6097777777777778 0.4219444444444444Z" fill="#000000" stroke-width="0.0278"></path>
</svg>