<svg xmlns="http://www.w3.org/2000/svg" viewBox="0 0 16 16" id="Dice-D20--Streamline-Font-Awesome" height="16" width="16">
  <desc>
    Dice D20 Streamline Icon: https://streamlinehq.com
  </desc>
<!--! Font Awesome Free 6.5.2 by @fontawesome - https://fontawesome.com License - https://fontawesome.com/license/free (Icons: CC BY 4.0, Fonts: SIL OFL 1.1, Code: MIT License) Copyright 2024 Fonticons, Inc.-->
  <path d="m1.652678125 4.011871875 1.62893125 0.976746875c0.238828125 0.143909375 0.54501875 0.061240625 0.679740625 -0.18065l2.372975 -4.277478125c0.09185625 -0.16534375 -0.02755625 -0.370490625 -0.21739375 -0.370490625 -0.048990625 0 -0.09798125 0.015309375 -0.140846875 0.042865625L1.62818125 3.185159375c-0.293940625 0.202084375 -0.28169375 0.6399375 0.024496875 0.823653125Zm-1.00124375 1.4054125v3.7845125c0 0.244953125 0.3184375 0.336809375 0.4501 0.134725l1.837140625 -2.81695c0.153096875 -0.23270625 0.079609375 -0.54501875 -0.15921875 -0.688928125l-1.387040625 -0.8328375c-0.3245625 -0.1959625 -0.74098125 0.039803125 -0.74098125 0.419478125ZM9.665675 0.530490625l2.376034375 4.274415625c0.134725 0.241890625 0.443978125 0.324559375 0.67974375 0.18065l1.62893125 -0.976746875c0.306190625 -0.1837125 0.3184375 -0.621565625 0.024496875 -0.82365L10.02391875 0.202865625c-0.04286875 -0.02755625 -0.091859375 -0.042865625 -0.14085 -0.042865625 -0.1898375 0 -0.30925 0.205146875 -0.21739375 0.370490625Zm5.682890625 4.88679375c0 -0.379675 -0.41641875 -0.615440625 -0.74098125 -0.419478125l-1.387040625 0.8328375c-0.238828125 0.143909375 -0.309253125 0.456221875 -0.15921875 0.688925l1.837140625 2.81695c0.1316625 0.20515 0.4501 0.110228125 0.4501 -0.134721875V5.417284375Zm-1.50951875 7.53228125 -4.917415625 0.578696875c-0.2480125 0.027559375 -0.431728125 0.23883125 -0.431728125 0.48684375v1.616684375c0 0.113290625 0.091859375 0.208209375 0.208209375 0.208209375 0.024496875 0 0.048990625 -0.0030625 0.0734875 -0.012246875l5.287903125 -1.95961875c0.186778125 -0.067359375 0.309253125 -0.24495 0.309253125 -0.443975 0 -0.28475625 -0.248015625 -0.5052125 -0.529709375 -0.47153125ZM7.3018875 15.8369375c0.113290625 0 0.208209375 -0.09185625 0.208209375 -0.208209375v-1.610559375c0 -0.248015625 -0.186778125 -0.456225 -0.431728125 -0.48684375L2.160953125 12.949565625c-0.28169375 -0.03368125 -0.529709375 0.186775 -0.529709375 0.47153125 0 0.199025 0.122475 0.376615625 0.309253125 0.443978125l5.287903125 1.959615625c0.024496875 0.009184375 0.048990625 0.012246875 0.0734875 0.012246875ZM1.43834375 11.884021875l5.232790625 0.61850625c0.238828125 0.02755625 0.410296875 -0.22964375 0.29088125 -0.437853125l-2.62405 -4.592853125c-0.180653125 -0.3184375 -0.6338125 -0.330684375 -0.8359 -0.02449375l-2.415840625 3.68040625c-0.199021875 0.303128125 -0.009184375 0.713421875 0.35211875 0.7562875Zm13.460121875 -0.75935 -2.40053125 -3.674284375c-0.199025 -0.306190625 -0.655246875 -0.293940625 -0.8359 0.024496875l-2.614865625 4.58060625c-0.1194125 0.208209375 0.048990625 0.46540625 0.29088125 0.43785l5.208296875 -0.61238125c0.361303125 -0.042865625 0.551140625 -0.450096875 0.35211875 -0.753225Zm-6.641265625 0.336809375 2.40053125 -4.20093125c0.186775 -0.327621875 -0.048990625 -0.73179375 -0.425603125 -0.73179375H5.767875c-0.376615625 0 -0.61238125 0.40723125 -0.42560625 0.73179375l2.40053125 4.20093125c0.113290625 0.195959375 0.398046875 0.195959375 0.5113375 0Zm-2.7557125 -5.912534375h4.997025c0.373553125 0 0.60931875 -0.401109375 0.428665625 -0.72873125L8.47765625 0.411075c-0.08573125 -0.15615625 -0.251075 -0.251075 -0.428665625 -0.251075h-0.09798125c-0.177590625 0 -0.342934375 0.09798125 -0.428665625 0.251075l-2.449521875 4.409140625c-0.180653125 0.327621875 0.055115625 0.72873125 0.428665625 0.72873125Z" fill="#000000" stroke-width="0.0313"></path>
</svg>