<?xml version="1.0" encoding="utf-8"?>
<!-- Generator: Adobe Illustrator 24.1.1, SVG Export Plug-In . SVG Version: 6.00 Build 0)  -->
<svg version="1.1" id="Layer_4" xmlns="http://www.w3.org/2000/svg" xmlns:xlink="http://www.w3.org/1999/xlink" x="0px" y="0px"
	 viewBox="0 0 310.4 437" style="enable-background:new 0 0 310.4 437;" xml:space="preserve">
<style type="text/css">
	.st0{fill-rule:evenodd;clip-rule:evenodd;fill:#FFFFFF;}
	.st1{fill-rule:evenodd;clip-rule:evenodd;fill:#8F0B2E;}
</style>
<rect x="15" y="16" class="st0" width="282" height="376"/>
<path class="st1" d="M0,0h155.2h155.2v374.5c0,5.6-1.9,11.6-5.3,15.9c-4.1,5.3-8.7,8.2-15.2,10L155.2,437L20.5,400.4
	c-6.5-1.7-11-4.7-15.2-10C1.9,386.1,0,380.1,0,374.5V0L0,0z M26.4,295.1l78.6,21.3c11.4,3.1,19.9,13.5,19.9,25.9
	c0,12.5-8.6,23-20.2,26l-16.7,4.3V385h134.5v-12.5l-20.1-5.2c-9.6-2-16.8-10.5-16.8-20.7c0-11.7,9.5-21.1,21.1-21.1l8.5,0
	c4.2,0,8.4-0.3,12.4-0.9c3.4-0.5,6.8-1.2,10.1-2.2c11.5-3.3,21.9-8.7,31.1-16.4c9-7.6,15.9-16.4,21.1-26.9H195
	c-0.8,0-1.6,0.2-2.3,0.6c-0.7,0.4-1.2,0.9-1.7,1.6c-1.7,2.7-3.2,5.7-4.5,8.8c0,0,0,0.1-0.1,0.1c-0.3,0.5-0.8,0.9-1.5,0.9
	c-0.9,0-1.7-0.8-1.7-1.7v-19.2l-157,0V295.1L26.4,295.1z M65.3,119.3c2.8-18.4,0.8-35.1-11.3-49.8c3.6,22.8-3,31.2-8.8,45.6
	c-11.5,28.5-3.3,53.3,7,73.5c-3.1-15.3-1.8-38.7,9.5-56.7c-2.8,14.2-2.5,29,0.1,38.2l14.1-12c23.9-20.5,34.6-39.5,46.1-67.9
	c3.1-7.7,6.5-14.6,15.3-23.3c-32.7,10.2-33.5,40.9-53.7,56.5c9.2-23.2,11.5-55.9,26.5-84C81.5,62.4,78.8,91.5,65.3,119.3L65.3,119.3
	z M70.6,72.2c5.3-13,16.4-24.3,11.3-43.6C74.3,41.2,62.9,46.6,70.6,72.2L70.6,72.2z M244.2,199.9c19.8,0.6,21.8-8.2,33-18
	C255.6,178.7,255.7,191.9,244.2,199.9L244.2,199.9z M231.6,226.5c14.9,7.5,15.8,2.7,28.3-0.4C248.3,215.5,242,222.2,231.6,226.5
	L231.6,226.5z M175.1,227.7c24-15.4,47.4-9.4,66.4-37.2c-23.1,11.9-50,10.8-70.6,19.9c10.5-11.8,26.9-17.4,39.7-26.7
	c8.1-5.8,13.4-12.1,16.8-21.7c-20.5,17.3-57.4,18.7-85.8,49l-18.7,19.9c10.8,3.3,26.8,3.9,38.8,0.9c-14.9,11.5-37.6,12.2-56.6,9.5
	c25.5,13.5,49.8,16.3,76.8,6.6c20.7-7.4,30.4-10.1,50.1-9C214.6,226.5,195.4,225,175.1,227.7L175.1,227.7z M58.4,198.9
	c-5.3,11.5-9,30.6-9.8,43.7c12.9-0.2,32.8-3.1,44-8l120-128.5c-0.3-4.3-1.7-10.5-3.4-14.8c11.1,11.6,19.7,26.1,25.5,41.2l10.1-9.7
	c3.7-3.5,3.9-9.6,0.4-13.3L225,88.4c7-9.3,21.7-24.2,32.3-32.1c-0.1-1.9-0.5-4.3-1.2-6.5l9.6,10c1.8-1.7,3.3-3.8,4.3-6.1
	c1-2.2,1.5-4.7,1.5-7.2c0-10.1-8.2-18.3-18.3-18.3c-5,0-9.5,2-12.8,5.2l5.3,5.5c-7.6,10.6-25.1,26.8-35.6,34l-19.9-20.8
	c-4-4.2-9.8-4-13.9-0.1l-9.7,9.3c10.3,4.2,22.5,11.5,30.7,18.6L58.4,198.9z"/>
</svg>
